<?xml version="1.0" standalone="no"?>
<!DOCTYPE svg PUBLIC "-//W3C//DTD SVG 20010904//EN"
 "http://www.w3.org/TR/2001/REC-SVG-20010904/DTD/svg10.dtd">
<svg version="1.0"
    xmlns="http://www.w3.org/2000/svg" width="260.000000pt" height="260.000000pt" viewBox="0 0 650 650" preserveAspectRatio="xMidYMid meet">
    <g id="Group_16434" data-name="Group 16434" transform="translate(-187 -187)">
        <path id="Intersection_13" data-name="Intersection 13" d="M6524.688,24756.611a249.627,249.627,0,0,0,0-361.221v-94.764q4.562,2.865,9.023,5.879a325.925,325.925,0,0,1,117.75,142.994,323.363,323.363,0,0,1,18.936,61,328.285,328.285,0,0,1,0,130.994,323.123,323.123,0,0,1-48.9,116.217,326.894,326.894,0,0,1-87.784,87.783q-4.46,3.012-9.023,5.877Z" transform="translate(-5840 -24064)" fill="#000000" opacity="0.3"/>
        <path id="Intersection_12" data-name="Intersection 12" d="M259.5,548.2a323.192,323.192,0,0,1-116.212-48.9A325.944,325.944,0,0,1,25.538,356.312,323.386,323.386,0,0,1,6.6,295.306a328.191,328.191,0,0,1,0-131A323.24,323.24,0,0,1,55.5,48.1a325.94,325.94,0,0,1,142.99-117.75A323.372,323.372,0,0,1,259.5-88.59a328.142,328.142,0,0,1,131,0,322.837,322.837,0,0,1,98.579,37.8V115.561A199.909,199.909,0,0,0,325,29.807c-110.281,0-200,89.72-200,200s89.719,200,200,200a199.909,199.909,0,0,0,164.077-85.754V510.407A322.816,322.816,0,0,1,390.5,548.2a328.185,328.185,0,0,1-131,0Z" transform="translate(187.002 282.193)" fill="#000000"/>
    </g>
</svg>